<svg width="30" height="30" viewBox="0 0 30 30" fill="none" xmlns="http://www.w3.org/2000/svg">
<path fill-rule="evenodd" clip-rule="evenodd" d="M0.333985 2.78368C0.333985 2.13372 0.592179 1.51038 1.05177 1.05079C1.51136 0.591206 2.13469 0.333011 2.78465 0.333011H27.214C27.5361 0.332485 27.8551 0.395495 28.1528 0.518433C28.4506 0.641372 28.7211 0.821824 28.949 1.04946C29.1769 1.27709 29.3576 1.54744 29.4809 1.84502C29.6041 2.14261 29.6675 2.46158 29.6673 2.78368V27.213C29.6677 27.5352 29.6045 27.8542 29.4814 28.152C29.3583 28.4497 29.1777 28.7202 28.95 28.9481C28.7223 29.176 28.4518 29.3567 28.1542 29.4799C27.8565 29.6032 27.5375 29.6665 27.2153 29.6663H2.78465C2.46271 29.6663 2.14393 29.6029 1.84651 29.4797C1.5491 29.3564 1.27888 29.1758 1.0513 28.9481C0.823714 28.7204 0.643227 28.4501 0.520148 28.1526C0.397069 27.8551 0.33381 27.5363 0.333985 27.2143V2.78368ZM11.9447 11.517H15.9167V13.5117C16.49 12.365 17.9566 11.333 20.1607 11.333C24.386 11.333 25.3873 13.617 25.3873 17.8077V25.5703H21.1113V18.7623C21.1113 16.3757 20.538 15.029 19.082 15.029C17.062 15.029 16.222 16.481 16.222 18.7623V25.5703H11.9447V11.517ZM4.61132 25.3877H8.88865V11.333H4.61132V25.3863V25.3877ZM9.50065 6.74901C9.50872 7.11524 9.44355 7.47939 9.30897 7.8201C9.17439 8.1608 8.97312 8.47119 8.71696 8.73305C8.4608 8.99492 8.15492 9.20298 7.81726 9.34502C7.4796 9.48707 7.11697 9.56023 6.75065 9.56023C6.38433 9.56023 6.0217 9.48707 5.68404 9.34502C5.34639 9.20298 5.0405 8.99492 4.78434 8.73305C4.52818 8.47119 4.32691 8.1608 4.19233 7.8201C4.05775 7.47939 3.99259 7.11524 4.00065 6.74901C4.01648 6.03015 4.31316 5.34607 4.82717 4.84326C5.34117 4.34045 6.03162 4.0589 6.75065 4.0589C7.46969 4.0589 8.16014 4.34045 8.67414 4.84326C9.18814 5.34607 9.48482 6.03015 9.50065 6.74901Z" fill="white"/>
</svg>
