<svg width="165" height="165" viewBox="0 0 165 165" fill="none" xmlns="http://www.w3.org/2000/svg">
<path d="M34.2467 45.9292L25.4129 38.4922L29.8575 33.1778L30.8064 33.9767L27.2594 38.2178L30.2443 40.7307L33.4583 36.8877L34.4073 37.6866L31.1933 41.5296L35.1443 44.8559L34.2467 45.9292Z" fill="#1E1E1E"/>
<path d="M41.2798 38.0569L33.8673 29.1938L39.1987 24.7054L39.9949 25.6575L35.7333 29.2453L38.2379 32.24L42.2235 28.8847L43.0197 29.8368L39.0342 33.1921L41.5532 36.2042L45.8839 32.5583L46.6802 33.5104L41.2798 38.0569Z" fill="#1E1E1E"/>
<path d="M49.894 31.3238L48.6262 32.0582L46.5273 19.9142L47.7756 19.1911L57.2086 27.0867L55.9407 27.8212L48.1027 21.1152L48.0246 21.1604L49.894 31.3238ZM48.1098 27.1386L53.2203 24.1783L53.8397 25.2547L48.7292 28.2149L48.1098 27.1386Z" fill="#1E1E1E"/>
<path d="M54.5596 17.0794L54.1359 15.9115L62.2632 12.9436L62.6869 14.1115L59.2793 15.3558L62.7998 25.0601L61.4875 25.5393L57.9671 15.835L54.5596 17.0794Z" fill="#1E1E1E"/>
<path d="M73.8637 10.5368L75.2389 10.2935L76.5647 17.8376C76.7016 18.6165 76.6408 19.3444 76.3824 20.0211C76.127 20.6935 75.6994 21.2644 75.0996 21.7338C74.4992 22.1995 73.7535 22.5112 72.8626 22.6688C71.9716 22.8264 71.1647 22.7894 70.4417 22.5578C69.718 22.3225 69.1197 21.9331 68.6468 21.3896C68.177 20.8417 67.8736 20.1783 67.7368 19.3994L66.4109 11.8552L67.7861 11.6119L69.0924 19.0448C69.1902 19.6012 69.3992 20.0748 69.7195 20.4656C70.0391 20.8526 70.4462 21.1305 70.9409 21.2993C71.4386 21.4636 72.0036 21.4899 72.6357 21.378C73.2679 21.2662 73.7898 21.0477 74.2015 20.7224C74.6125 20.3935 74.9004 19.9926 75.065 19.5199C75.2328 19.0428 75.2677 18.526 75.17 17.9697L73.8637 10.5368Z" fill="#1E1E1E"/>
<path d="M79.2702 21.3608L79.2702 9.79089L83.1666 9.79089C84.0676 9.79089 84.8071 9.94529 85.3852 10.2541C85.9633 10.5592 86.3912 10.9791 86.669 11.5139C86.9468 12.0487 87.0856 12.657 87.0856 13.3387C87.0856 14.0204 86.9468 14.6249 86.669 15.1521C86.3912 15.6794 85.9651 16.0937 85.3908 16.395C84.8165 16.6925 84.0826 16.8413 83.1892 16.8413L80.0359 16.8413L80.0359 15.5758L83.1441 15.5758C83.7598 15.5758 84.2553 15.4854 84.6306 15.3047C85.0098 15.1239 85.2838 14.8678 85.4527 14.5364C85.6254 14.2012 85.7117 13.8019 85.7117 13.3387C85.7117 12.8754 85.6254 12.4706 85.4527 12.1241C85.2801 11.7776 85.0041 11.5102 84.625 11.3219C84.2459 11.1298 83.7447 11.0337 83.1216 11.0337L80.6666 11.0337L80.6666 21.3608L79.2702 21.3608ZM84.6982 16.1634L87.5361 21.3608L85.9145 21.3608L83.1216 16.1634L84.6982 16.1634Z" fill="#1E1E1E"/>
<path d="M90.2257 21.9645L92.2282 10.5704L99.082 11.7829L98.8669 13.0069L93.3883 12.0376L92.7117 15.8876L97.8354 16.7941L97.6203 18.018L92.4966 17.1116L91.816 20.9838L97.3834 21.9687L97.1683 23.1927L90.2257 21.9645Z" fill="#1E1E1E"/>
<path d="M103.063 25.0458L99.7191 23.8247L103.663 12.9525L107.155 14.2278C108.207 14.6116 109.027 15.1578 109.617 15.8661C110.208 16.571 110.556 17.4014 110.661 18.3575C110.767 19.3099 110.615 20.3489 110.207 21.4743C109.796 22.6069 109.241 23.5085 108.543 24.1791C107.845 24.8463 107.033 25.2589 106.104 25.4169C105.177 25.5714 104.164 25.4477 103.063 25.0458ZM101.455 23.136L103.402 23.847C104.298 24.1742 105.104 24.2719 105.818 24.1402C106.533 24.0085 107.152 23.6752 107.673 23.1402C108.195 22.6053 108.616 21.8954 108.937 21.0106C109.256 20.1329 109.387 19.3251 109.331 18.5873C109.276 17.8459 109.027 17.2017 108.582 16.6545C108.139 16.1038 107.494 15.6739 106.647 15.3648L104.552 14.5996L101.455 23.136Z" fill="#1E1E1E"/>
<path d="M119.277 33.5567L126.689 24.6936L129.674 27.2065C130.367 27.79 130.829 28.3924 131.059 29.0138C131.294 29.6347 131.341 30.2468 131.199 30.8501C131.057 31.4533 130.768 32.0161 130.331 32.5383C129.894 33.0605 129.391 33.4455 128.821 33.6934C128.254 33.9436 127.644 34.0105 126.992 33.894C126.342 33.7746 125.673 33.4256 124.986 32.847L122.847 31.0459L123.643 30.0938L125.748 31.8659C126.222 32.2653 126.672 32.5039 127.097 32.5815C127.522 32.6592 127.917 32.6125 128.28 32.4416C128.649 32.2702 128.982 32.0071 129.278 31.6522C129.575 31.2974 129.775 30.9243 129.876 30.5331C129.981 30.1443 129.954 29.7483 129.797 29.3451C129.641 28.939 129.324 28.5339 128.843 28.1296L126.963 26.5463L120.346 34.4573L119.277 33.5567Z" fill="#1E1E1E"/>
<path d="M127.2 40.6018L136.034 33.1648L138.538 36.1596C139.117 36.852 139.475 37.5196 139.611 38.1624C139.749 38.8028 139.704 39.4017 139.474 39.9589C139.244 40.5162 138.869 41.0139 138.348 41.4521C137.828 41.8903 137.277 42.1721 136.696 42.2975C136.115 42.423 135.525 42.3618 134.925 42.114C134.329 41.8639 133.744 41.3954 133.17 40.7088L131.143 38.2853L132.109 37.4719L134.107 39.8608C134.503 40.3339 134.89 40.6566 135.269 40.829C135.651 41.0041 136.023 41.0501 136.384 40.9669C136.751 40.8842 137.112 40.6939 137.465 40.3962C137.819 40.0984 138.073 39.7718 138.226 39.4163C138.38 39.0609 138.407 38.677 138.307 38.2645C138.21 37.8497 137.961 37.4028 137.56 36.9238L135.982 35.037L128.097 41.6751L127.2 40.6018ZM134.657 41.4328L132.513 46.9548L131.471 45.7085L133.644 40.2211L134.657 41.4328Z" fill="#1E1E1E"/>
<path d="M143.406 54.0592C142.353 54.6693 141.333 55.0058 140.346 55.0686C139.359 55.1314 138.466 54.9506 137.667 54.5263C136.868 54.102 136.223 53.4625 135.731 52.608C135.239 51.7534 135.01 50.8729 135.043 49.9665C135.076 49.0601 135.367 48.1938 135.914 47.3678C136.462 46.5418 137.262 45.8237 138.316 45.2136C139.369 44.6034 140.389 44.267 141.376 44.2042C142.363 44.1414 143.256 44.3221 144.055 44.7465C144.854 45.1708 145.499 45.8103 145.991 46.6648C146.482 47.5194 146.712 48.3999 146.679 49.3063C146.645 50.2127 146.355 51.0789 145.807 51.905C145.26 52.731 144.459 53.4491 143.406 54.0592ZM142.73 52.885C143.595 52.3841 144.241 51.8162 144.669 51.1813C145.099 50.5496 145.325 49.8991 145.347 49.2295C145.371 48.5633 145.209 47.9268 144.859 47.3201C144.51 46.7135 144.041 46.2524 143.452 45.9369C142.865 45.6247 142.191 45.4957 141.429 45.55C140.669 45.6076 139.856 45.8869 138.991 46.3878C138.127 46.8887 137.479 47.4549 137.05 48.0866C136.622 48.7215 136.396 49.3721 136.372 50.0383C136.35 50.7079 136.513 51.3459 136.862 51.9526C137.211 52.5593 137.679 53.0187 138.266 53.331C138.855 53.6465 139.53 53.7754 140.29 53.7179C141.052 53.6635 141.865 53.3859 142.73 52.885Z" fill="#1E1E1E"/>
<path d="M151.632 59.6715L152.11 60.9881L144.363 63.8168C143.672 64.0693 143.038 64.1564 142.463 64.078C141.887 63.9997 141.39 63.7744 140.971 63.4022C140.553 63.0301 140.229 62.529 140 61.899C139.785 61.3045 139.7 60.7361 139.747 60.1939C139.798 59.6504 139.976 59.1725 140.282 58.7602C140.588 58.3479 141.018 58.0407 141.571 57.8385L142.041 59.1338C141.734 59.2458 141.494 59.4198 141.32 59.6557C141.151 59.8939 141.051 60.1707 141.022 60.486C140.992 60.8013 141.04 61.1307 141.165 61.474C141.302 61.8526 141.498 62.1457 141.753 62.3532C142.008 62.5607 142.314 62.6774 142.671 62.7033C143.033 62.7315 143.438 62.6639 143.886 62.5003L151.632 59.6715Z" fill="#1E1E1E"/>
<path d="M142.292 68.7639L153.649 66.7548L154.858 73.6314L153.638 73.8472L152.672 68.3504L148.834 69.0293L149.738 74.17L148.518 74.3858L147.614 69.2451L143.755 69.9279L144.737 75.5137L143.517 75.7295L142.292 68.7639Z" fill="#1E1E1E"/>
<path d="M151.919 87.5332L151.919 86.1322C152.321 86.0493 152.674 85.9043 152.978 85.6971C153.282 85.4938 153.537 85.2452 153.744 84.9514C153.954 84.6614 154.112 84.3394 154.217 83.9854C154.322 83.6314 154.374 83.2623 154.374 82.8781C154.374 82.1776 154.198 81.543 153.845 80.9743C153.492 80.4093 152.972 79.9593 152.285 79.6241C151.598 79.2926 150.756 79.1269 149.757 79.1269C148.759 79.1269 147.916 79.2926 147.229 79.6241C146.542 79.9593 146.022 80.4093 145.669 80.9743C145.316 81.543 145.14 82.1776 145.14 82.8781C145.14 83.2623 145.193 83.6314 145.298 83.9854C145.403 84.3394 145.559 84.6614 145.765 84.9514C145.975 85.2452 146.232 85.4938 146.536 85.6971C146.844 85.9043 147.197 86.0493 147.595 86.1322L147.595 87.5332C147.006 87.4277 146.478 87.2357 146.013 86.957C145.547 86.6783 145.151 86.3318 144.825 85.9175C144.502 85.5032 144.256 85.038 144.087 84.5221C143.918 84.0099 143.834 83.4619 143.834 82.8781C143.834 81.8914 144.074 81.0138 144.554 80.2455C145.035 79.4772 145.718 78.8727 146.604 78.432C147.49 77.9914 148.541 77.7711 149.757 77.7711C150.973 77.7711 152.025 77.9914 152.91 78.432C153.796 78.8727 154.48 79.4772 154.96 80.2455C155.441 81.0138 155.681 81.8914 155.681 82.8781C155.681 83.4619 155.596 84.0099 155.427 84.5221C155.258 85.038 155.011 85.5032 154.684 85.9175C154.361 86.3318 153.967 86.6783 153.502 86.957C153.04 87.2357 152.513 87.4277 151.919 87.5332Z" fill="#1E1E1E"/>
<path d="M153.76 90.7914L154.98 91.0072L153.478 99.5528L152.258 99.337L152.888 95.7541L142.751 93.9608L142.993 92.581L153.13 94.3743L153.76 90.7914Z" fill="#1E1E1E"/>
<path d="M147.35 109.01C147.909 109.142 148.419 109.035 148.879 108.691C149.34 108.346 149.69 107.844 149.929 107.186C150.103 106.705 150.178 106.255 150.154 105.838C150.129 105.423 150.017 105.066 149.818 104.765C149.618 104.468 149.346 104.256 149 104.13C148.711 104.024 148.437 104.002 148.179 104.064C147.923 104.131 147.686 104.249 147.469 104.418C147.256 104.589 147.061 104.778 146.886 104.987C146.714 105.196 146.565 105.392 146.438 105.575L145.742 106.571C145.565 106.827 145.348 107.105 145.092 107.404C144.834 107.706 144.535 107.976 144.193 108.212C143.854 108.453 143.472 108.614 143.047 108.695C142.622 108.776 142.156 108.724 141.648 108.539C141.063 108.325 140.589 107.978 140.228 107.497C139.866 107.02 139.652 106.437 139.587 105.748C139.52 105.062 139.638 104.302 139.941 103.467C140.223 102.688 140.593 102.059 141.05 101.581C141.506 101.106 142.017 100.788 142.583 100.626C143.148 100.467 143.734 100.475 144.342 100.649L143.849 102.008C143.427 101.894 143.039 101.908 142.683 102.051C142.33 102.199 142.021 102.435 141.756 102.759C141.493 103.087 141.283 103.468 141.126 103.899C140.944 104.402 140.861 104.883 140.878 105.342C140.899 105.802 141.013 106.203 141.221 106.543C141.433 106.885 141.736 107.128 142.131 107.273C142.491 107.404 142.821 107.41 143.12 107.291C143.418 107.171 143.698 106.973 143.959 106.695C144.219 106.418 144.472 106.107 144.716 105.764L145.582 104.565C146.134 103.804 146.725 103.259 147.357 102.928C147.988 102.598 148.669 102.566 149.399 102.832C150.006 103.054 150.475 103.412 150.807 103.906C151.141 104.404 151.332 104.979 151.38 105.63C151.43 106.285 151.329 106.96 151.077 107.654C150.823 108.354 150.472 108.931 150.024 109.385C149.579 109.84 149.084 110.148 148.538 110.309C147.991 110.474 147.441 110.466 146.887 110.284L147.35 109.01Z" fill="#1E1E1E"/>
<path d="M104.232 149.095C104.491 149.61 104.9 149.933 105.459 150.066C106.019 150.198 106.626 150.144 107.282 149.905C107.762 149.73 108.154 149.499 108.457 149.211C108.757 148.926 108.958 148.61 109.06 148.264C109.159 147.919 109.145 147.573 109.019 147.227C108.914 146.936 108.755 146.712 108.541 146.553C108.326 146.4 108.084 146.294 107.815 146.236C107.547 146.181 107.278 146.153 107.006 146.152C106.735 146.155 106.489 146.166 106.269 146.187L105.061 146.291C104.752 146.32 104.4 146.332 104.007 146.327C103.61 146.324 103.212 146.267 102.813 146.156C102.411 146.051 102.042 145.861 101.707 145.586C101.372 145.312 101.112 144.92 100.927 144.41C100.714 143.823 100.675 143.236 100.809 142.65C100.941 142.065 101.248 141.525 101.733 141.032C102.213 140.54 102.87 140.142 103.702 139.838C104.478 139.554 105.196 139.435 105.855 139.478C106.51 139.524 107.082 139.712 107.57 140.043C108.054 140.375 108.425 140.831 108.683 141.41L107.328 141.904C107.144 141.507 106.883 141.217 106.546 141.036C106.206 140.859 105.827 140.773 105.409 140.777C104.989 140.787 104.564 140.87 104.134 141.027C103.633 141.21 103.212 141.455 102.873 141.764C102.535 142.076 102.302 142.421 102.176 142.8C102.051 143.182 102.061 143.571 102.204 143.968C102.335 144.329 102.542 144.586 102.826 144.739C103.109 144.892 103.44 144.979 103.82 145.001C104.199 145.023 104.598 145.017 105.018 144.984L106.49 144.88C107.425 144.815 108.222 144.919 108.88 145.191C109.538 145.464 110 145.967 110.266 146.699C110.487 147.308 110.515 147.899 110.352 148.471C110.186 149.049 109.87 149.565 109.403 150.02C108.935 150.48 108.355 150.836 107.664 151.088C106.965 151.343 106.299 151.444 105.664 151.391C105.031 151.342 104.478 151.16 104.004 150.844C103.526 150.529 103.179 150.101 102.962 149.559L104.232 149.095Z" fill="#1E1E1E"/>
<path d="M90.0602 151.475L91.4354 151.232C91.5864 151.614 91.79 151.938 92.0462 152.202C92.2986 152.467 92.5869 152.676 92.9111 152.829C93.2323 152.987 93.5757 153.087 93.9415 153.129C94.3072 153.171 94.6786 153.159 95.0557 153.092C95.7433 152.971 96.3356 152.686 96.8325 152.239C97.3258 151.792 97.6773 151.2 97.887 150.463C98.093 149.727 98.1094 148.866 97.936 147.879C97.7626 146.892 97.4536 146.088 97.009 145.467C96.5607 144.847 96.0286 144.411 95.4128 144.161C94.7933 143.911 94.1398 143.847 93.4522 143.968C93.0751 144.035 92.7219 144.151 92.3927 144.316C92.0634 144.482 91.7744 144.691 91.5256 144.946C91.2738 145.205 91.0744 145.502 90.9276 145.838C90.7777 146.178 90.6967 146.551 90.6844 146.959L89.3092 147.202C89.3104 146.602 89.4073 146.047 89.6001 145.539C89.7928 145.031 90.0642 144.579 90.4141 144.184C90.7647 143.794 91.1786 143.47 91.6557 143.213C92.1291 142.958 92.6523 142.779 93.2253 142.678C94.1939 142.506 95.097 142.591 95.9346 142.933C96.7721 143.274 97.4841 143.844 98.0705 144.643C98.6568 145.442 99.0556 146.442 99.2668 147.644C99.478 148.845 99.4443 149.922 99.1656 150.874C98.8869 151.826 98.4122 152.606 97.7415 153.214C97.0708 153.822 96.2511 154.212 95.2826 154.383C94.7096 154.485 94.157 154.496 93.6249 154.418C93.0891 154.341 92.5895 154.177 92.1262 153.926C91.6635 153.679 91.2549 153.35 90.9005 152.938C90.5468 152.531 90.2667 152.043 90.0602 151.475Z" fill="#1E1E1E"/>
<path d="M86.6197 143.857L86.6197 155.427L82.7232 155.427C81.8223 155.427 81.0828 155.273 80.5047 154.964C79.9266 154.659 79.4987 154.239 79.2209 153.704C78.9431 153.169 78.8042 152.561 78.8042 151.879C78.8042 151.198 78.9431 150.593 79.2209 150.066C79.4987 149.539 79.9247 149.124 80.4991 148.823C81.0734 148.526 81.8073 148.377 82.7007 148.377L85.8539 148.377L85.8539 149.642L82.7458 149.642C82.1301 149.642 81.6346 149.733 81.2592 149.913C80.8801 150.094 80.6061 150.35 80.4371 150.682C80.2645 151.017 80.1781 151.416 80.1781 151.879C80.1781 152.343 80.2645 152.748 80.4371 153.094C80.6098 153.441 80.8857 153.708 81.2649 153.896C81.644 154.088 82.1451 154.184 82.7683 154.184L85.2233 154.184L85.2233 143.857L86.6197 143.857ZM81.1917 149.055L78.3538 143.857L79.9754 143.857L82.7683 149.055L81.1917 149.055Z" fill="#1E1E1E"/>
<path d="M65.9337 147.519C66.1449 146.318 66.5436 145.317 67.13 144.519C67.7164 143.72 68.4283 143.15 69.2659 142.808C70.1035 142.467 71.0066 142.382 71.9751 142.553C72.9437 142.725 73.7633 143.115 74.4341 143.723C75.1048 144.331 75.5795 145.111 75.8582 146.063C76.1368 147.015 76.1706 148.091 75.9594 149.293C75.7482 150.495 75.3494 151.495 74.7631 152.294C74.1767 153.093 73.4647 153.663 72.6271 154.004C71.7896 154.345 70.8865 154.43 69.9179 154.259C68.9493 154.088 68.1297 153.698 67.459 153.09C66.7883 152.482 66.3136 151.702 66.0349 150.75C65.7562 149.798 65.7225 148.721 65.9337 147.519ZM67.2645 147.755C67.0911 148.742 67.1093 149.603 67.319 150.34C67.525 151.077 67.8765 151.668 68.3735 152.116C68.8667 152.563 69.4571 152.847 70.1448 152.968C70.8324 153.09 71.4859 153.026 72.1054 152.776C72.7212 152.525 73.2532 152.09 73.7015 151.469C74.1462 150.848 74.4552 150.044 74.6285 149.058C74.8019 148.071 74.7856 147.21 74.5796 146.473C74.3699 145.736 74.0184 145.144 73.5251 144.698C73.0282 144.25 72.4359 143.966 71.7483 143.844C71.0607 143.723 70.409 143.787 69.7932 144.038C69.1737 144.287 68.6417 144.723 68.197 145.344C67.7487 145.965 67.4379 146.768 67.2645 147.755Z" fill="#1E1E1E"/>
<path d="M64.5988 140.93L60.6547 151.802L59.3424 151.323L62.8629 141.619L57.8257 139.779L58.2494 138.612L64.5988 140.93Z" fill="#1E1E1E"/>
<path d="M54.7936 136.848L49.0277 146.868L47.8183 146.167L52.9648 137.223L48.3225 134.534L48.9419 133.458L54.7936 136.848Z" fill="#1E1E1E"/>
<path d="M36.8178 122.478L39.1053 125.214L30.2714 132.651L27.8826 129.794C27.1636 128.934 26.7251 128.05 26.5673 127.14C26.4066 126.233 26.5192 125.34 26.905 124.459C27.288 123.581 27.9367 122.757 28.8511 121.988C29.7713 121.213 30.7011 120.71 31.6404 120.48C32.5769 120.252 33.4864 120.303 34.369 120.631C35.2487 120.963 36.065 121.578 36.8178 122.478ZM37.2587 124.939L35.9268 123.347C35.3139 122.614 34.6651 122.125 33.9803 121.88C33.2956 121.636 32.594 121.614 31.8757 121.816C31.1573 122.018 30.4387 122.421 29.7198 123.026C29.0066 123.627 28.4904 124.26 28.1711 124.927C27.849 125.597 27.7441 126.28 27.8565 126.977C27.9661 127.676 28.3104 128.372 28.8895 129.065L30.3228 130.778L37.2587 124.939Z" fill="#1E1E1E"/>
<path d="M22.4961 111.274C23.5494 110.664 24.5694 110.328 25.5562 110.265C26.543 110.202 27.436 110.383 28.235 110.807C29.034 111.231 29.6794 111.871 30.1711 112.725C30.6629 113.58 30.8921 114.46 30.8589 115.367C30.8257 116.273 30.5352 117.139 29.9876 117.966C29.44 118.792 28.6396 119.51 27.5863 120.12C26.533 120.73 25.5129 121.066 24.5261 121.129C23.5393 121.192 22.6464 121.011 21.8474 120.587C21.0483 120.163 20.403 119.523 19.9112 118.669C19.4195 117.814 19.1902 116.933 19.2234 116.027C19.2566 115.121 19.5471 114.254 20.0947 113.428C20.6423 112.602 21.4428 111.884 22.4961 111.274ZM23.1717 112.448C22.307 112.949 21.6607 113.517 21.2328 114.152C20.8031 114.784 20.5771 115.434 20.5549 116.104C20.5309 116.77 20.6934 117.407 21.0425 118.013C21.3916 118.62 21.8607 119.081 22.4497 119.396C23.0368 119.709 23.7114 119.838 24.4733 119.783C25.2334 119.726 26.0458 119.446 26.9106 118.946C27.7753 118.445 28.4226 117.878 28.8523 117.247C29.2802 116.612 29.5061 115.961 29.5302 115.295C29.5524 114.625 29.3889 113.987 29.0398 113.381C28.6907 112.774 28.2226 112.315 27.6354 112.002C27.0464 111.687 26.3719 111.558 25.6118 111.615C24.8498 111.67 24.0365 111.947 23.1717 112.448Z" fill="#1E1E1E"/>
<path d="M26.4803 105.946L16.4127 112.415L15.9897 111.056L24.2364 105.939L24.2029 105.831L14.5059 106.289L14.036 104.779L22.2693 99.6191L22.2357 99.5113L12.5522 100.012L12.1292 98.6533L24.0767 98.2243L24.5064 99.6047L16.4934 104.79L16.5203 104.877L26.0506 104.566L26.4803 105.946Z" fill="#1E1E1E"/>
<path d="M11.0625 88.2106L22.5136 86.8442L22.6732 88.1906L14.4244 95.524L14.4377 95.6362L23.4286 94.5634L23.5935 95.9546L12.1424 97.321L11.9828 95.9746L20.2513 88.6161L20.238 88.5039L11.2247 89.5794L11.0625 88.2106Z" fill="#1E1E1E"/>
<circle cx="18.0253" cy="63.1733" r="3" transform="rotate(30 18.0253 63.1733)" fill="#1E1E1E"/>
<circle cx="132.341" cy="129.173" r="3" transform="rotate(30 132.341 129.173)" fill="#1E1E1E"/>
<path opacity="0.8" d="M82.6829 96.8972L82.6829 70.3258M82.6829 96.8972L73.2543 87.4686M82.6829 96.8972L92.1115 87.4686" stroke="#1E1E1E" stroke-width="1.71429" stroke-linecap="round" stroke-linejoin="round"/>
</svg>
