<svg width="146" height="145" viewBox="0 0 146 145" fill="none" xmlns="http://www.w3.org/2000/svg">
<path d="M109.854 23.4842L117.291 14.6503L122.605 19.0949L121.807 20.0438L117.565 16.4969L115.052 19.4817L118.895 22.6957L118.097 23.6447L114.254 20.4307L110.927 24.3818L109.854 23.4842Z" fill="#1E1E1E"/>
<path d="M117.726 30.5172L126.589 23.1047L131.078 28.4361L130.126 29.2324L126.538 24.9707L123.543 27.4753L126.899 31.4609L125.946 32.2572L122.591 28.2716L119.579 30.7907L123.225 35.1213L122.273 35.9176L117.726 30.5172Z" fill="#1E1E1E"/>
<path d="M124.459 39.1314L123.725 37.8636L135.869 35.7647L136.592 37.0131L128.696 46.446L127.962 45.1782L134.668 37.3401L134.623 37.2621L124.459 39.1314ZM128.645 37.3473L131.605 42.4577L130.529 43.0771L127.568 37.9667L128.645 37.3473Z" fill="#1E1E1E"/>
<path d="M138.704 43.797L139.872 43.3734L142.84 51.5006L141.672 51.9243L140.427 48.5168L130.723 52.0372L130.244 50.725L139.948 47.2046L138.704 43.797Z" fill="#1E1E1E"/>
<path d="M145.246 63.1011L145.49 64.4763L137.946 65.8022C137.167 65.9391 136.439 65.8783 135.762 65.6199C135.09 65.3645 134.519 64.9369 134.049 64.3371C133.584 63.7366 133.272 62.9909 133.114 62.1C132.957 61.2091 132.994 60.4021 133.225 59.6791C133.461 58.9554 133.85 58.3572 134.394 57.8843C134.942 57.4144 135.605 57.1111 136.384 56.9742L143.928 55.6483L144.171 57.0235L136.738 58.3298C136.182 58.4276 135.708 58.6366 135.318 58.9569C134.931 59.2765 134.653 59.6836 134.484 60.1783C134.32 60.6761 134.293 61.241 134.405 61.8731C134.517 62.5053 134.736 63.0272 135.061 63.4389C135.39 63.8499 135.791 64.1378 136.263 64.3025C136.74 64.4702 137.257 64.5052 137.814 64.4074L145.246 63.1011Z" fill="#1E1E1E"/>
<path d="M134.422 68.5076H145.992V72.4041C145.992 73.305 145.838 74.0445 145.529 74.6226C145.224 75.2007 144.804 75.6286 144.269 75.9064C143.734 76.1842 143.126 76.3231 142.445 76.3231C141.763 76.3231 141.158 76.1842 140.631 75.9064C140.104 75.6286 139.689 75.2026 139.388 74.6282C139.091 74.0539 138.942 73.32 138.942 72.4266V69.2734H140.207V72.3816C140.207 72.9972 140.298 73.4927 140.479 73.8681C140.659 74.2472 140.915 74.5212 141.247 74.6902C141.582 74.8628 141.981 74.9492 142.445 74.9492C142.908 74.9492 143.313 74.8628 143.659 74.6902C144.006 74.5175 144.273 74.2416 144.461 73.8624C144.653 73.4833 144.749 72.9822 144.749 72.359V69.904H134.422V68.5076ZM139.62 73.9356L134.422 76.7735V75.1519L139.62 72.359V73.9356Z" fill="#1E1E1E"/>
<path d="M133.819 79.4631L145.213 81.4656L144 88.3195L142.776 88.1044L143.746 82.6257L139.896 81.9491L138.989 87.0729L137.765 86.8578L138.672 81.734L134.799 81.0535L133.814 86.6208L132.59 86.4057L133.819 79.4631Z" fill="#1E1E1E"/>
<path d="M130.737 92.3006L131.959 88.9565L142.831 92.9006L141.555 96.3928C141.172 97.444 140.625 98.2645 139.917 98.8544C139.212 99.4456 138.382 99.7935 137.426 99.8981C136.473 100.004 135.434 99.8528 134.309 99.4445C133.176 99.0337 132.275 98.4789 131.604 97.7802C130.937 97.0828 130.524 96.27 130.366 95.3418C130.212 94.4149 130.335 93.4011 130.737 92.3006ZM132.647 90.6924L131.936 92.6396C131.609 93.5356 131.511 94.341 131.643 95.0559C131.775 95.7708 132.108 96.3891 132.643 96.9107C133.178 97.4324 133.888 97.8537 134.773 98.1746C135.65 98.493 136.458 98.6243 137.196 98.5684C137.937 98.5138 138.582 98.2641 139.129 97.8194C139.679 97.3761 140.109 96.7311 140.418 95.8845L141.184 93.7892L132.647 90.6924Z" fill="#1E1E1E"/>
<path d="M122.226 108.514L131.09 115.927L128.577 118.912C127.993 119.605 127.391 120.066 126.769 120.296C126.148 120.531 125.536 120.578 124.933 120.436C124.33 120.294 123.767 120.005 123.245 119.568C122.723 119.132 122.338 118.628 122.09 118.058C121.84 117.491 121.773 116.882 121.889 116.229C122.009 115.579 122.358 114.911 122.936 114.224L124.737 112.084L125.689 112.88L123.917 114.985C123.518 115.46 123.279 115.91 123.202 116.335C123.124 116.76 123.171 117.154 123.342 117.518C123.513 117.886 123.776 118.219 124.131 118.516C124.486 118.813 124.859 119.012 125.25 119.114C125.639 119.218 126.035 119.192 126.438 119.034C126.844 118.879 127.249 118.561 127.654 118.081L129.237 116.2L121.326 109.584L122.226 108.514Z" fill="#1E1E1E"/>
<path d="M115.181 116.437L122.618 125.271L119.624 127.776C118.931 128.355 118.264 128.712 117.621 128.848C116.98 128.987 116.382 128.941 115.824 128.711C115.267 128.482 114.769 128.106 114.331 127.586C113.893 127.065 113.611 126.515 113.486 125.933C113.36 125.352 113.421 124.762 113.669 124.163C113.919 123.567 114.388 122.981 115.074 122.407L117.498 120.38L118.311 121.346L115.922 123.344C115.449 123.74 115.127 124.127 114.954 124.507C114.779 124.889 114.733 125.26 114.816 125.622C114.899 125.989 115.089 126.349 115.387 126.703C115.685 127.056 116.011 127.31 116.367 127.464C116.722 127.617 117.106 127.644 117.519 127.544C117.934 127.447 118.38 127.198 118.859 126.798L120.746 125.22L114.108 117.335L115.181 116.437ZM114.35 123.895L108.828 121.75L110.075 120.708L115.562 122.881L114.35 123.895Z" fill="#1E1E1E"/>
<path d="M101.724 132.643C101.114 131.59 100.777 130.57 100.715 129.583C100.652 128.596 100.833 127.703 101.257 126.904C101.681 126.105 102.321 125.46 103.175 124.968C104.03 124.476 104.91 124.247 105.817 124.28C106.723 124.314 107.589 124.604 108.415 125.152C109.241 125.699 109.96 126.5 110.57 127.553C111.18 128.606 111.516 129.626 111.579 130.613C111.642 131.6 111.461 132.493 111.037 133.292C110.612 134.091 109.973 134.736 109.118 135.228C108.264 135.72 107.383 135.949 106.477 135.916C105.57 135.883 104.704 135.592 103.878 135.045C103.052 134.497 102.334 133.697 101.724 132.643ZM102.898 131.968C103.399 132.832 103.967 133.479 104.602 133.907C105.234 134.336 105.884 134.562 106.554 134.584C107.22 134.608 107.856 134.446 108.463 134.097C109.07 133.748 109.531 133.279 109.846 132.69C110.159 132.103 110.287 131.428 110.233 130.666C110.176 129.906 109.896 129.094 109.395 128.229C108.895 127.364 108.328 126.717 107.697 126.287C107.062 125.859 106.411 125.633 105.745 125.609C105.075 125.587 104.437 125.75 103.831 126.1C103.224 126.449 102.764 126.917 102.452 127.504C102.137 128.093 102.008 128.767 102.065 129.528C102.12 130.29 102.397 131.103 102.898 131.968Z" fill="#1E1E1E"/>
<path d="M96.1117 140.869L94.7951 141.347L91.9664 133.601C91.7139 132.909 91.6268 132.276 91.7052 131.7C91.7835 131.124 92.0088 130.627 92.381 130.209C92.7531 129.79 93.2542 129.466 93.8841 129.238C94.4787 129.022 95.0471 128.938 95.5893 128.985C96.1328 129.035 96.6107 129.214 97.023 129.519C97.4352 129.825 97.7425 130.255 97.9447 130.809L96.6494 131.279C96.5374 130.972 96.3634 130.731 96.1275 130.557C95.8893 130.388 95.6125 130.289 95.2972 130.259C94.9818 130.23 94.6525 130.277 94.3092 130.402C93.9305 130.539 93.6375 130.736 93.43 130.991C93.2225 131.246 93.1058 131.552 93.0799 131.909C93.0517 132.27 93.1193 132.675 93.2829 133.123L96.1117 140.869Z" fill="#1E1E1E"/>
<path d="M87.0193 131.53L89.0284 142.886L82.1518 144.095L81.936 142.875L87.4328 141.909L86.7539 138.072L81.6132 138.975L81.3974 137.755L86.5381 136.852L85.8553 132.992L80.2695 133.974L80.0537 132.754L87.0193 131.53Z" fill="#1E1E1E"/>
<path d="M68.25 141.157H69.651C69.7339 141.559 69.8789 141.911 70.0861 142.215C70.2894 142.52 70.538 142.775 70.8318 142.981C71.1218 143.191 71.4438 143.349 71.7978 143.454C72.1518 143.559 72.5209 143.612 72.9051 143.612C73.6056 143.612 74.2402 143.435 74.8089 143.083C75.3739 142.73 75.8239 142.21 76.1591 141.523C76.4906 140.836 76.6563 139.993 76.6563 138.995C76.6563 137.996 76.4906 137.153 76.1591 136.466C75.8239 135.779 75.3739 135.26 74.8089 134.907C74.2402 134.554 73.6056 134.377 72.9051 134.377C72.5209 134.377 72.1518 134.43 71.7978 134.535C71.4438 134.64 71.1218 134.796 70.8318 135.002C70.538 135.213 70.2894 135.47 70.0861 135.774C69.8789 136.082 69.7339 136.435 69.651 136.832H68.25C68.3555 136.243 68.5475 135.716 68.8262 135.25C69.1049 134.785 69.4514 134.389 69.8657 134.062C70.28 133.739 70.7451 133.493 71.2611 133.324C71.7733 133.156 72.3213 133.071 72.9051 133.071C73.8918 133.071 74.7694 133.311 75.5377 133.792C76.306 134.272 76.9105 134.956 77.3512 135.841C77.7918 136.727 78.0121 137.778 78.0121 138.995C78.0121 140.211 77.7918 141.262 77.3512 142.148C76.9105 143.034 76.306 143.717 75.5377 144.197C74.7694 144.678 73.8918 144.918 72.9051 144.918C72.3213 144.918 71.7733 144.834 71.2611 144.665C70.7451 144.496 70.28 144.248 69.8657 143.922C69.4514 143.599 69.1049 143.205 68.8262 142.739C68.5475 142.277 68.3555 141.75 68.25 141.157Z" fill="#1E1E1E"/>
<path d="M64.9918 142.997L64.776 144.217L56.2304 142.715L56.4462 141.495L60.0291 142.125L61.8224 131.988L63.2022 132.231L61.4089 142.367L64.9918 142.997Z" fill="#1E1E1E"/>
<path d="M46.7735 136.587C46.6414 137.146 46.7478 137.656 47.0926 138.117C47.4374 138.577 47.9389 138.927 48.5972 139.166C49.0785 139.341 49.528 139.416 49.9457 139.392C50.3598 139.366 50.7173 139.254 51.0182 139.056C51.3156 138.856 51.5274 138.583 51.6537 138.238C51.7593 137.948 51.7811 137.675 51.7191 137.416C51.6522 137.16 51.5342 136.924 51.365 136.707C51.1945 136.493 51.0051 136.298 50.7966 136.123C50.5869 135.951 50.3908 135.802 50.2084 135.676L49.2124 134.979C48.9563 134.802 48.6787 134.586 48.3795 134.329C48.0768 134.072 47.8074 133.772 47.5713 133.431C47.3304 133.092 47.1693 132.71 47.088 132.285C47.0067 131.86 47.0589 131.393 47.2443 130.885C47.4582 130.3 47.8053 129.827 48.2859 129.466C48.7628 129.103 49.3459 128.89 50.0352 128.824C50.7209 128.757 51.4814 128.875 52.3166 129.178C53.0952 129.461 53.7237 129.83 54.202 130.288C54.6768 130.744 54.9953 131.255 55.1573 131.821C55.3157 132.385 55.308 132.972 55.1341 133.58L53.775 133.087C53.8891 132.665 53.8747 132.276 53.7319 131.921C53.5843 131.568 53.3486 131.258 53.0246 130.993C52.6959 130.73 52.3156 130.52 51.8838 130.363C51.3813 130.181 50.9004 130.099 50.4412 130.116C49.9808 130.136 49.5803 130.251 49.2398 130.459C48.898 130.67 48.655 130.974 48.5107 131.369C48.3793 131.729 48.3733 132.058 48.4925 132.357C48.6118 132.656 48.8103 132.936 49.0879 133.196C49.3655 133.457 49.6761 133.709 50.0197 133.954L51.2184 134.82C51.9789 135.371 52.5244 135.963 52.855 136.594C53.1856 137.225 53.2176 137.906 52.9509 138.636C52.7294 139.243 52.3716 139.712 51.8776 140.044C51.3787 140.379 50.804 140.57 50.1533 140.617C49.4979 140.667 48.8233 140.566 48.1296 140.315C47.4289 140.06 46.8517 139.709 46.3982 139.261C45.9433 138.816 45.6352 138.321 45.4738 137.775C45.3089 137.228 45.3175 136.678 45.4994 136.125L46.7735 136.587Z" fill="#1E1E1E"/>
<path d="M6.68827 93.4696C6.17351 93.7282 5.84993 94.1372 5.71753 94.6966C5.58512 95.256 5.63872 95.8637 5.87831 96.5198C6.05349 96.9995 6.28464 97.391 6.57175 97.6944C6.85758 97.9941 7.17346 98.1951 7.51939 98.2973C7.86404 98.396 8.20978 98.3824 8.55661 98.2566C8.84682 98.1513 9.07121 97.992 9.22978 97.7787C9.38352 97.5632 9.48948 97.321 9.54764 97.0522C9.60226 96.7847 9.63001 96.515 9.6309 96.243C9.62824 95.9724 9.61675 95.7269 9.59641 95.5065L9.4918 94.2981C9.46307 93.989 9.45106 93.6378 9.45577 93.2446C9.45919 92.8479 9.51619 92.4497 9.62676 92.05C9.73251 91.6482 9.92256 91.2796 10.1969 90.9444C10.4713 90.6092 10.8633 90.3491 11.3729 90.1642C11.9604 89.9511 12.5473 89.912 13.1336 90.0468C13.7187 90.1781 14.2579 90.4859 14.7513 90.97C15.2434 91.4506 15.6415 92.1071 15.9455 92.9396C16.2289 93.7156 16.3487 94.4332 16.3048 95.0923C16.2596 95.7478 16.0715 96.3194 15.7406 96.807C15.4083 97.291 14.9526 97.6621 14.3735 97.9201L13.8789 96.5655C14.2765 96.3813 14.566 96.1205 14.7474 95.7831C14.924 95.4434 15.0101 95.0646 15.0058 94.6467C14.9967 94.2266 14.9135 93.8013 14.7564 93.371C14.5735 92.8701 14.3278 92.4499 14.0195 92.1103C13.7076 91.7721 13.3622 91.5398 12.9835 91.4136C12.6012 91.2886 12.2118 91.298 11.8154 91.4418C11.4544 91.5728 11.1974 91.7799 11.0443 92.0631C10.8913 92.3463 10.8038 92.6777 10.7821 93.0571C10.7603 93.4365 10.7659 93.8359 10.7988 94.2554L10.9035 95.7274C10.9685 96.6626 10.8646 97.4593 10.5919 98.1175C10.3193 98.7757 9.81664 99.2376 9.08405 99.5034C8.47532 99.7242 7.88455 99.7528 7.31175 99.5891C6.73412 99.4231 6.2179 99.107 5.7631 98.6409C5.30347 98.1724 4.94742 97.5925 4.69494 96.9011C4.43989 96.2027 4.33882 95.5363 4.39172 94.9019C4.44109 94.2688 4.62369 93.7152 4.93953 93.2411C5.25409 92.7635 5.68242 92.4163 6.22455 92.1997L6.68827 93.4696Z" fill="#1E1E1E"/>
<path d="M4.30807 79.2976L4.55136 80.6728C4.16888 80.8239 3.84541 81.0275 3.58095 81.2836C3.31583 81.536 3.10679 81.8243 2.9538 82.1485C2.79645 82.4697 2.69659 82.8131 2.65421 83.1789C2.61184 83.5447 2.624 83.9161 2.69071 84.2931C2.81236 84.9808 3.09688 85.573 3.54428 86.07C3.99103 86.5632 4.58289 86.9147 5.31985 87.1244C6.05615 87.3305 6.9176 87.3468 7.90421 87.1734C8.89081 87 9.69471 86.691 10.3159 86.2464C10.9365 85.7981 11.372 85.266 11.6226 84.6503C11.8725 84.0308 11.9366 83.3772 11.8149 82.6896C11.7482 82.3125 11.6322 81.9594 11.4669 81.6301C11.3015 81.3009 11.0917 81.0118 10.8373 80.763C10.5786 80.5112 10.2814 80.3119 9.94565 80.165C9.60554 80.0152 9.23171 79.9341 8.82417 79.9219L8.58088 78.5467C9.18151 78.5478 9.73598 78.6448 10.2443 78.8375C10.7526 79.0302 11.2041 79.3016 11.5987 79.6515C11.9896 80.0021 12.3133 80.416 12.5698 80.8931C12.8257 81.3665 13.0043 81.8898 13.1057 82.4628C13.277 83.4313 13.192 84.3344 12.8507 85.172C12.5093 86.0096 11.9393 86.7215 11.1405 87.3079C10.3416 87.8943 9.34137 88.293 8.13965 88.5042C6.93792 88.7154 5.86113 88.6817 4.90928 88.403C3.95743 88.1243 3.17742 87.6496 2.56925 86.9789C1.96108 86.3082 1.57132 85.4886 1.39997 84.52C1.2986 83.947 1.28689 83.3944 1.36486 82.8623C1.44216 82.3265 1.60619 81.827 1.85694 81.3636C2.10397 80.9009 2.43325 80.4923 2.84478 80.1379C3.25259 79.7842 3.74036 79.5041 4.30807 79.2976Z" fill="#1E1E1E"/>
<path d="M11.9259 75.8571H0.355957V71.9606C0.355957 71.0597 0.510373 70.3202 0.819206 69.7421C1.12427 69.164 1.54421 68.7361 2.07902 68.4583C2.61382 68.1805 3.22207 68.0416 3.90376 68.0416C4.58546 68.0416 5.18994 68.1805 5.71721 68.4583C6.24449 68.7361 6.65878 69.1622 6.96008 69.7365C7.25761 70.3108 7.40638 71.0447 7.40638 71.9381V75.0914H6.14092V71.9832C6.14092 71.3675 6.05053 70.872 5.86975 70.4967C5.68897 70.1175 5.43286 69.8435 5.10143 69.6746C4.76624 69.5019 4.36701 69.4156 3.90376 69.4156C3.44052 69.4156 3.03564 69.5019 2.68915 69.6746C2.34265 69.8472 2.07525 70.1231 1.88694 70.5023C1.69486 70.8814 1.59882 71.3826 1.59882 72.0057V74.4607H11.9259V75.8571ZM6.72845 70.4291L11.9259 67.5912V69.2128L6.72845 72.0057V70.4291Z" fill="#1E1E1E"/>
<path d="M8.26374 55.1711C9.46547 55.3823 10.4657 55.7811 11.2646 56.3674C12.0634 56.9538 12.6334 57.6658 12.9748 58.5033C13.3161 59.3409 13.4011 60.244 13.2298 61.2126C13.0584 62.1811 12.6687 63.0008 12.0605 63.6715C11.4523 64.3422 10.6723 64.8169 9.72045 65.0956C8.7686 65.3743 7.69181 65.408 6.49009 65.1968C5.28836 64.9856 4.28809 64.5868 3.48928 64.0005C2.69046 63.4141 2.12039 62.7021 1.77905 61.8646C1.43771 61.027 1.35271 60.1239 1.52406 59.1553C1.69541 58.1868 2.08517 57.3671 2.69334 56.6964C3.30152 56.0257 4.08153 55.551 5.03338 55.2723C5.98523 54.9936 7.06201 54.9599 8.26374 55.1711ZM8.0283 56.5019C7.0417 56.3285 6.17992 56.3467 5.44296 56.5564C4.70665 56.7625 4.1148 57.114 3.66739 57.6109C3.22064 58.1041 2.93645 58.6946 2.8148 59.3822C2.69316 60.0698 2.75728 60.7233 3.00718 61.3428C3.25773 61.9586 3.69328 62.4907 4.31382 62.939C4.93502 63.3836 5.73892 63.6926 6.72553 63.866C7.71213 64.0394 8.57358 64.023 9.30989 63.817C10.0468 63.6073 10.6387 63.2558 11.0855 62.7626C11.5329 62.2656 11.8174 61.6733 11.939 60.9857C12.0607 60.2981 11.9962 59.6464 11.7457 59.0306C11.4958 58.4111 11.0602 57.8791 10.439 57.4345C9.81848 56.9862 9.0149 56.6753 8.0283 56.5019Z" fill="#1E1E1E"/>
<path d="M14.853 53.8362L3.98086 49.8921L4.46004 48.5799L14.1643 52.1003L16.0038 47.0631L17.1717 47.4868L14.853 53.8362Z" fill="#1E1E1E"/>
<path d="M18.9355 44.031L8.91569 38.2651L9.61622 37.0558L18.5597 42.2023L21.2488 37.56L22.3252 38.1793L18.9355 44.031Z" fill="#1E1E1E"/>
<path d="M33.3048 26.0553L30.5697 28.3427L23.1327 19.5089L25.989 17.1201C26.8487 16.401 27.7333 15.9626 28.6427 15.8047C29.5497 15.644 30.4434 15.7566 31.3238 16.1424C32.2018 16.5254 33.0257 17.1741 33.7956 18.0886C34.5703 19.0088 35.0728 19.9385 35.3031 20.8779C35.531 21.8143 35.4806 22.7239 35.1518 23.6065C34.8206 24.4862 34.2049 25.3024 33.3048 26.0553ZM30.8441 26.4962L32.4366 25.1642C33.1695 24.5514 33.6582 23.9025 33.9027 23.2178C34.1473 22.533 34.1688 21.8314 33.9672 21.1131C33.7656 20.3947 33.3621 19.6761 32.7569 18.9572C32.1565 18.2441 31.5228 17.7279 30.8558 17.4086C30.1863 17.0864 29.5032 16.9815 28.8062 17.094C28.1069 17.2035 27.411 17.5478 26.7186 18.1269L25.0049 19.5602L30.8441 26.4962Z" fill="#1E1E1E"/>
<path d="M44.5091 11.7335C45.1192 12.7868 45.4557 13.8068 45.5185 14.7937C45.5813 15.7805 45.4005 16.6734 44.9762 17.4724C44.5518 18.2714 43.9124 18.9168 43.0578 19.4085C42.2033 19.9003 41.3228 20.1296 40.4164 20.0963C39.51 20.0631 38.6437 19.7727 37.8177 19.2251C36.9917 18.6774 36.2736 17.877 35.6634 16.8237C35.0533 15.7704 34.7168 14.7503 34.654 13.7635C34.5912 12.7767 34.772 11.8838 35.1964 11.0848C35.6207 10.2858 36.2601 9.64039 37.1147 9.14864C37.9693 8.65689 38.8497 8.42762 39.7562 8.46085C40.6626 8.49407 41.5288 8.7845 42.3548 9.33211C43.1809 9.87973 43.899 10.6802 44.5091 11.7335ZM43.3349 12.4092C42.834 11.5444 42.2661 10.8981 41.6312 10.4703C40.9995 10.0405 40.3489 9.81454 39.6794 9.79237C39.0132 9.76832 38.3767 9.93085 37.77 10.28C37.1634 10.6291 36.7023 11.0981 36.3868 11.6871C36.0745 12.2742 35.9456 12.9488 35.9999 13.7108C36.0575 14.4708 36.3367 15.2833 36.8376 16.148C37.3386 17.0127 37.9048 17.66 38.5365 18.0897C39.1714 18.5176 39.822 18.7436 40.4882 18.7676C41.1577 18.7898 41.7958 18.6263 42.4025 18.2772C43.0092 17.9281 43.4686 17.46 43.7809 16.8729C44.0964 16.2839 44.2253 15.6093 44.1677 14.8492C44.1134 14.0873 43.8358 13.2739 43.3349 12.4092Z" fill="#1E1E1E"/>
<path d="M49.8368 15.7177L43.3681 5.6501L44.7271 5.22713L49.844 13.4739L49.9519 13.4403L49.4941 3.74337L51.004 3.2734L56.1641 11.5067L56.2719 11.4731L55.771 1.78965L57.1299 1.36667L57.559 13.3141L56.1785 13.7438L50.9927 5.73087L50.9064 5.75772L51.2173 15.288L49.8368 15.7177Z" fill="#1E1E1E"/>
<path d="M67.5726 0.299927L68.939 11.751L67.5926 11.9106L60.2592 3.6618L60.147 3.6751L61.2198 12.666L59.8286 12.8309L58.4622 1.37982L59.8086 1.22023L67.1671 9.48874L67.2793 9.47544L66.2038 0.462176L67.5726 0.299927Z" fill="#1E1E1E"/>
<circle cx="92.6099" cy="7.26275" r="3" transform="rotate(120 92.6099 7.26275)" fill="#1E1E1E"/>
<circle cx="26.6099" cy="121.578" r="3" transform="rotate(120 26.6099 121.578)" fill="#1E1E1E"/>
</svg>
