<svg width="48" height="48" viewBox="0 0 48 48" fill="none" xmlns="http://www.w3.org/2000/svg">
<rect width="48" height="48" fill="#1E1E1E"/>
<path d="M11.152 33.12C10.944 33.12 10.776 33.096 10.648 33.048C10.52 33.016 10.456 32.952 10.456 32.856C10.456 32.664 10.72 32.52 11.248 32.424C11.856 32.312 12.32 32.128 12.64 31.872C12.96 31.616 13.12 31.208 13.12 30.648V19.8C13.12 19.24 13 18.84 12.76 18.6C12.536 18.36 12.12 18.184 11.512 18.072C10.984 17.976 10.72 17.816 10.72 17.592C10.72 17.496 10.784 17.432 10.912 17.4C11.04 17.352 11.208 17.328 11.416 17.328C11.848 17.328 12.2 17.336 12.472 17.352C12.76 17.368 13.032 17.384 13.288 17.4C13.544 17.4 13.856 17.4 14.224 17.4C14.576 17.4 14.864 17.4 15.088 17.4C15.312 17.384 15.552 17.368 15.808 17.352C16.064 17.336 16.408 17.328 16.84 17.328C17.048 17.328 17.216 17.352 17.344 17.4C17.472 17.432 17.536 17.496 17.536 17.592C17.536 17.704 17.472 17.8 17.344 17.88C17.216 17.96 17.016 18.024 16.744 18.072C16.152 18.184 15.72 18.36 15.448 18.6C15.176 18.84 15.04 19.24 15.04 19.8V30.648C15.04 31.208 15.208 31.616 15.544 31.872C15.88 32.128 16.344 32.312 16.936 32.424C17.208 32.472 17.408 32.528 17.536 32.592C17.664 32.656 17.728 32.744 17.728 32.856C17.728 32.952 17.664 33.016 17.536 33.048C17.408 33.096 17.24 33.12 17.032 33.12C16.6 33.12 16.24 33.104 15.952 33.072C15.68 33.056 15.416 33.04 15.16 33.024C14.904 33.008 14.592 33 14.224 33C13.824 33 13.472 33.008 13.168 33.024C12.88 33.04 12.576 33.056 12.256 33.072C11.952 33.104 11.584 33.12 11.152 33.12ZM34.1883 33.408C34.0443 33.408 33.7563 33.288 33.3243 33.048C32.9083 32.808 32.5083 32.424 32.1243 31.896C32.0603 31.816 31.8603 31.576 31.5243 31.176C31.2043 30.776 30.7882 30.28 30.2762 29.688C29.7803 29.08 29.2363 28.424 28.6443 27.72C28.0523 27.016 27.4603 26.312 26.8683 25.608C26.2763 24.904 25.7243 24.256 25.2122 23.664C24.7003 23.056 24.2683 22.552 23.9163 22.152C23.5803 21.736 23.3723 21.48 23.2923 21.384C23.1803 21.24 23.0843 21.144 23.0043 21.096C22.9243 21.032 22.8523 21 22.7883 21C22.7083 21 22.6523 21.064 22.6203 21.192C22.5883 21.304 22.5723 21.408 22.5723 21.504C22.5563 22.288 22.5403 23.192 22.5243 24.216C22.5083 25.24 22.4923 26.296 22.4763 27.384C22.4603 28.472 22.4523 29.512 22.4523 30.504C22.4523 30.936 22.5563 31.336 22.7643 31.704C22.9883 32.072 23.3963 32.312 23.9883 32.424C24.2603 32.472 24.4603 32.528 24.5883 32.592C24.7163 32.656 24.7803 32.744 24.7803 32.856C24.7803 32.952 24.7163 33.016 24.5883 33.048C24.4603 33.096 24.2923 33.12 24.0843 33.12C23.6523 33.12 23.3243 33.104 23.1003 33.072C22.8923 33.056 22.7003 33.04 22.5243 33.024C22.3643 33.008 22.1323 33 21.8283 33C21.5403 33 21.3163 33.008 21.1562 33.024C20.9963 33.04 20.8123 33.056 20.6043 33.072C20.3963 33.104 20.0763 33.12 19.6443 33.12C19.4363 33.12 19.2683 33.096 19.1403 33.048C19.0123 33.016 18.9482 32.952 18.9482 32.856C18.9482 32.744 19.0123 32.656 19.1403 32.592C19.2683 32.528 19.4683 32.464 19.7402 32.4C20.2043 32.272 20.5403 32.04 20.7483 31.704C20.9563 31.352 21.0843 30.928 21.1323 30.432C21.1963 29.824 21.2603 29.024 21.3242 28.032C21.3883 27.024 21.4443 25.904 21.4923 24.672C21.5403 23.424 21.5643 22.144 21.5643 20.832C21.5643 19.984 21.3403 19.376 20.8923 19.008C20.4603 18.64 19.8923 18.344 19.1883 18.12C19.1243 18.088 18.9803 18.024 18.7563 17.928C18.5483 17.816 18.4443 17.688 18.4443 17.544C18.4443 17.4 18.5163 17.312 18.6603 17.28C18.8043 17.232 18.9163 17.208 18.9963 17.208C19.4603 17.224 19.8363 17.24 20.1243 17.256C20.4123 17.256 20.6683 17.264 20.8923 17.28C21.1163 17.296 21.3643 17.312 21.6363 17.328C21.9083 17.328 22.2603 17.328 22.6923 17.328C22.8363 17.328 22.9483 17.368 23.0283 17.448C23.1083 17.528 23.1883 17.624 23.2683 17.736C23.3323 17.832 23.5403 18.104 23.8923 18.552C24.2603 18.984 24.7083 19.536 25.2363 20.208C25.7803 20.864 26.3723 21.584 27.0123 22.368C27.6523 23.136 28.2923 23.912 28.9323 24.696C29.5723 25.464 30.1643 26.184 30.7083 26.856C31.2523 27.512 31.7003 28.056 32.0523 28.488C32.4203 28.92 32.6363 29.176 32.7003 29.256C32.7643 29.32 32.8523 29.416 32.9643 29.544C33.0923 29.672 33.2043 29.736 33.3003 29.736C33.4443 29.736 33.5243 29.568 33.5403 29.232C33.5403 29.008 33.5403 28.584 33.5403 27.96C33.5563 27.32 33.5643 26.552 33.5643 25.656C33.5803 24.744 33.5883 23.76 33.5883 22.704C33.5883 21.648 33.5883 20.568 33.5883 19.464C33.5723 19.144 33.4043 18.856 33.0843 18.6C32.7643 18.344 32.4683 18.192 32.1963 18.144C31.9243 18.096 31.6763 18.032 31.4523 17.952C31.2283 17.872 31.1163 17.776 31.1163 17.664C31.1163 17.568 31.2283 17.504 31.4523 17.472C31.6763 17.424 31.8923 17.4 32.1003 17.4C32.2603 17.4 32.4123 17.4 32.5563 17.4C32.7163 17.4 32.8683 17.4 33.0123 17.4C33.1723 17.4 33.3243 17.4 33.4683 17.4C33.8523 17.4 34.1563 17.4 34.3803 17.4C34.6043 17.384 34.8443 17.368 35.1003 17.352C35.3723 17.336 35.7483 17.328 36.2283 17.328C36.4363 17.328 36.6043 17.352 36.7323 17.4C36.8603 17.432 36.9243 17.496 36.9243 17.592C36.9243 17.816 36.6603 17.976 36.1323 18.072C35.5403 18.184 35.1483 18.328 34.9563 18.504C34.7643 18.68 34.6523 18.968 34.6203 19.368C34.6203 19.448 34.6123 19.76 34.5963 20.304C34.5963 20.848 34.5963 21.536 34.5963 22.368C34.5963 23.2 34.5883 24.096 34.5723 25.056C34.5723 26.016 34.5723 26.976 34.5723 27.936C34.5723 28.88 34.5723 29.728 34.5723 30.48C34.5723 30.864 34.5803 31.216 34.5963 31.536C34.6283 31.84 34.6523 32.104 34.6683 32.328C34.6843 32.536 34.6923 32.696 34.6923 32.808C34.6923 33.064 34.6363 33.224 34.5243 33.288C34.4283 33.368 34.3163 33.408 34.1883 33.408Z" fill="white"/>
</svg>
